<svg xmlns="http://www.w3.org/2000/svg" xmlns:xlink="http://www.w3.org/1999/xlink" zoomAndPan="magnify" version=" 1.0"
	viewBox="4.97 192.92 801.25 423">
	<path fill="#000000"
		d="M 383.890625 195.296875 L 383.890625 197.667969 L 390.582031 197.667969 L 390.582031 275.976562 C 390.582031 342.152344 390.550781 354.847656 390.386719 357.886719 C 390.078125 363.347656 389.996094 367.40625 390.105469 370.707031 L 390.203125 373.691406 L 391.820312 373.691406 C 393.480469 373.675781 393.675781 373.648438 395.808594 373.132812 C 397.4375 372.742188 398.175781 372.449219 400.546875 371.308594 C 402.96875 370.152344 403.710938 369.480469 405.285156 367.027344 C 405.730469 366.316406 406.148438 365.746094 406.203125 365.746094 C 406.246094 365.746094 406.566406 366.136719 406.902344 366.609375 C 408.378906 368.769531 410.957031 371.445312 412.601562 372.574219 C 415.347656 374.445312 418.191406 375.183594 423.191406 375.320312 C 428.65625 375.476562 433.855469 374.75 437.980469 373.257812 C 439.445312 372.742188 442.089844 371.445312 443.820312 370.402344 C 446.929688 368.535156 448.878906 366.75 450.832031 363.960938 C 453.5625 360.074219 454.71875 357.382812 455.890625 352.296875 L 456.363281 350.207031 L 456.363281 320.3125 C 456.363281 287.238281 456.417969 289.539062 455.445312 286.558594 C 454.761719 284.507812 453.605469 282.25 451.972656 279.824219 C 450.230469 277.203125 448.976562 275.8125 446.71875 274.011719 C 444.503906 272.242188 438.886719 269.625 435.277344 268.6875 C 432.503906 267.964844 429.03125 267.617188 424.363281 267.601562 C 420.65625 267.589844 419.289062 267.753906 417.339844 268.453125 C 415.875 268.96875 412.78125 270.835938 411.667969 271.867188 L 410.789062 272.675781 L 410.789062 197.667969 L 418.453125 197.667969 L 418.453125 192.929688 L 383.890625 192.929688 Z M 426.96875 271.867188 C 428.753906 272.269531 429.800781 272.730469 431.652344 273.945312 C 432.808594 274.683594 433.242188 275.074219 433.953125 275.976562 C 435.09375 277.414062 435.722656 278.488281 436.542969 280.382812 L 437.199219 281.914062 L 437.242188 321.164062 L 437.269531 360.410156 L 436.921875 361.761719 C 436.515625 363.363281 435.484375 365.605469 434.578125 366.820312 C 433.730469 367.949219 432.308594 369.121094 430.929688 369.800781 C 430.0625 370.21875 429.339844 370.429688 427.667969 370.765625 C 423.445312 371.585938 422.175781 371.601562 419.902344 370.832031 C 418.804688 370.457031 416.671875 369.441406 415.332031 368.632812 C 414.398438 368.058594 413.269531 366.625 412.476562 364.980469 C 410.496094 360.855469 410.371094 360.535156 410.371094 359.53125 C 410.371094 358.835938 410.414062 358.640625 410.582031 358.640625 C 410.761719 358.640625 410.789062 354.25 410.789062 319.921875 C 410.789062 281.386719 410.789062 281.203125 411.066406 280.171875 C 411.472656 278.710938 412.449219 276.800781 413.421875 275.589844 C 414.105469 274.722656 414.453125 274.429688 415.542969 273.804688 C 417.730469 272.550781 419.933594 271.839844 421.660156 271.796875 C 422.078125 271.796875 422.746094 271.742188 423.125 271.671875 C 424.40625 271.476562 425.480469 271.53125 426.96875 271.867188 Z M 426.96875 271.867188 "
		fill-opacity="1" fill-rule="nonzero" />
	<path fill="#000000"
		d="M 637.40625 195.296875 L 637.40625 197.667969 L 645.765625 197.667969 L 645.765625 272.6875 L 644.902344 271.851562 C 643.121094 270.152344 639.691406 268.367188 637.320312 267.910156 C 634.128906 267.296875 626.214844 267.589844 622.101562 268.480469 C 618.1875 269.332031 611.984375 272.117188 609.390625 274.195312 C 607.816406 275.449219 606.046875 277.273438 605.222656 278.472656 C 603.121094 281.582031 601.964844 283.867188 600.945312 286.976562 C 600.152344 289.441406 600.179688 287.546875 600.222656 321.007812 C 600.261719 354.792969 600.191406 351.964844 601.058594 354.945312 C 602.242188 359.097656 603.539062 361.664062 605.90625 364.5625 C 609.28125 368.6875 615.230469 372.464844 620.738281 373.957031 C 624.261719 374.902344 627.355469 375.28125 631.898438 375.28125 C 636.207031 375.292969 637.753906 375.113281 640.152344 374.316406 C 643.789062 373.105469 647.566406 369.984375 649.601562 366.511719 L 650.128906 365.605469 L 650.476562 366.125 C 650.6875 366.414062 651.148438 367.027344 651.507812 367.476562 C 651.871094 367.933594 652.179688 368.410156 652.179688 368.519531 C 652.191406 368.644531 652.707031 369.132812 653.335938 369.59375 C 656.316406 371.824219 657.570312 372.394531 662.210938 373.566406 C 662.476562 373.636719 664.207031 373.691406 666.058594 373.691406 L 669.40625 373.691406 L 669.308594 372.714844 C 669.179688 371.585938 668.457031 369.664062 667.566406 368.117188 C 666.589844 366.414062 666.074219 364.980469 666.058594 363.933594 C 666.046875 363.433594 666.058594 325.816406 666.085938 280.355469 L 666.117188 197.667969 L 668.804688 197.636719 L 671.480469 197.597656 L 671.480469 192.996094 L 654.449219 192.957031 L 637.40625 192.929688 Z M 634.9375 271.796875 C 636.832031 271.964844 638.128906 272.355469 639.914062 273.289062 C 641.515625 274.125 642.269531 274.710938 643.148438 275.769531 C 644.179688 277.011719 644.75 278.011719 645.265625 279.433594 L 645.699219 280.660156 L 645.738281 319.449219 C 645.765625 353.691406 645.796875 358.234375 645.976562 358.304688 C 646.242188 358.414062 646.242188 358.707031 645.960938 359.710938 C 645.835938 360.15625 645.683594 360.828125 645.601562 361.1875 C 645.417969 362.152344 644.039062 365.230469 643.3125 366.316406 C 642.492188 367.558594 641.765625 368.199219 640.121094 369.121094 C 636.023438 371.417969 633.765625 371.808594 629.574219 370.929688 C 626.964844 370.375 625.753906 369.898438 624.027344 368.742188 C 622.492188 367.710938 621.835938 367.058594 621.320312 366.054688 C 620.652344 364.742188 619.691406 362.179688 619.566406 361.355469 C 619.480469 360.828125 619.425781 346.890625 619.425781 323.574219 C 619.425781 290.890625 619.398438 286.597656 619.21875 286.445312 C 619.0625 286.320312 619.007812 285.957031 619.007812 284.953125 C 619.007812 283.6875 619.050781 283.519531 619.929688 280.953125 C 621.195312 277.273438 621.574219 276.675781 623.84375 274.820312 C 625.835938 273.191406 627.664062 272.269531 629.878906 271.796875 C 631.121094 271.519531 631.746094 271.519531 634.9375 271.796875 Z M 634.9375 271.796875 "
		fill-opacity="1" fill-rule="nonzero" />
	<path fill="#000000"
		d="M 470.328125 196.230469 L 470.371094 198.574219 L 473.617188 198.613281 L 476.851562 198.640625 L 476.851562 484.210938 L 471.695312 484.210938 L 471.695312 488.808594 L 502.078125 488.808594 L 502.078125 484.210938 L 496.78125 484.210938 L 496.78125 435.445312 L 497.546875 434.859375 C 498.132812 434.429688 498.371094 434.316406 498.480469 434.429688 C 498.71875 434.664062 500.265625 436.851562 501.199219 438.261719 C 501.644531 438.945312 502.273438 439.878906 502.59375 440.351562 C 502.925781 440.824219 503.609375 441.882812 504.125 442.722656 C 504.65625 443.542969 505.855469 445.425781 506.800781 446.902344 C 507.75 448.367188 510.285156 452.433594 512.433594 455.917969 C 514.578125 459.402344 516.625 462.691406 516.988281 463.234375 C 517.351562 463.765625 518.328125 465.339844 519.148438 466.71875 C 519.972656 468.101562 521.140625 469.953125 521.726562 470.832031 C 523.273438 473.171875 524.5 475.152344 525.601562 477.117188 C 526.132812 478.066406 527.109375 479.695312 527.761719 480.726562 C 528.417969 481.757812 529.28125 483.136719 529.699219 483.792969 C 531.59375 486.804688 534.339844 488.769531 538.3125 489.96875 C 540.320312 490.582031 541.265625 490.691406 544.097656 490.679688 C 546.410156 490.679688 546.96875 490.621094 548.554688 490.300781 C 551.511719 489.675781 553.140625 489.144531 555.105469 488.140625 C 556.765625 487.277344 557.042969 487.070312 558.632812 485.5625 C 559.582031 484.671875 560.640625 483.777344 561.003906 483.585938 L 561.65625 483.25 L 560.722656 483.234375 C 557.308594 483.222656 553.910156 481.910156 551.039062 479.542969 C 549.867188 478.582031 549.421875 478.09375 548.597656 476.867188 C 548.039062 476.058594 547.136719 474.777344 546.578125 474.023438 C 546.035156 473.285156 545.492188 472.492188 545.363281 472.265625 C 545.253906 472.03125 544.90625 471.542969 544.597656 471.152344 C 544.292969 470.761719 543.59375 469.703125 543.039062 468.796875 C 541.878906 466.902344 540.820312 465.339844 538.746094 462.46875 C 537.171875 460.296875 534.746094 456.601562 532.542969 452.964844 C 531.777344 451.710938 526.855469 444.113281 521.617188 436.074219 C 512.277344 421.773438 512.082031 421.453125 512.363281 421.230469 C 512.515625 421.105469 519.511719 414.609375 527.914062 406.792969 C 538.367188 397.078125 543.566406 392.324219 544.347656 391.808594 C 545.074219 391.308594 546.0625 390.820312 547.066406 390.441406 L 548.640625 389.859375 L 557.40625 389.859375 L 557.378906 387.308594 L 557.335938 384.769531 L 544.722656 384.671875 C 537.785156 384.617188 530.4375 384.617188 528.390625 384.660156 L 524.65625 384.742188 L 524.65625 390.136719 L 528.765625 390.136719 C 533.042969 390.136719 533.460938 390.179688 534.035156 390.75 C 534.398438 391.113281 534.328125 391.710938 533.824219 392.421875 C 533.433594 392.953125 497.046875 426.929688 496.851562 426.929688 C 496.808594 426.929688 496.78125 375.558594 496.78125 312.785156 L 496.78125 198.640625 L 504.445312 198.640625 L 504.445312 193.902344 L 470.300781 193.902344 Z M 470.328125 196.230469 "
		fill-opacity="1" fill-rule="nonzero" />
	<path fill="#000000"
		d="M 34.628906 266.25 C 28.050781 266.527344 23.410156 267.839844 18.644531 270.753906 C 15.910156 272.425781 14.65625 273.371094 12.875 275.15625 C 11.5625 276.453125 10.976562 277.191406 9.738281 279.058594 C 8.902344 280.328125 7.953125 281.859375 7.632812 282.472656 C 6.796875 284.105469 5.808594 287.351562 5.167969 290.554688 C 4.957031 291.574219 4.945312 294.542969 4.984375 321.148438 C 5.027344 340.632812 5.097656 351.195312 5.195312 352.324219 C 5.390625 354.527344 5.585938 355.265625 6.65625 357.761719 C 8.21875 361.425781 11.480469 365.675781 14.28125 367.710938 C 16.789062 369.539062 19.882812 371.042969 23.621094 372.269531 C 27.230469 373.46875 32.621094 374.066406 38.558594 373.929688 C 43.074219 373.832031 45.542969 373.398438 49.960938 371.921875 C 58.894531 368.953125 65.417969 362.375 67.449219 354.320312 C 69.289062 346.972656 69.570312 344.632812 69.109375 339.921875 L 69.027344 339.128906 L 67.0625 339.128906 C 65.875 339.140625 64.71875 339.210938 64.175781 339.335938 C 63.675781 339.449219 63.03125 339.53125 62.742188 339.546875 C 62.449219 339.546875 62.085938 339.613281 61.933594 339.683594 C 61.710938 339.808594 61.695312 339.878906 61.820312 340.128906 C 61.945312 340.355469 61.960938 341.273438 61.902344 343.363281 C 61.792969 347.097656 61.457031 348.867188 59.898438 353.691406 C 58.742188 357.246094 57.679688 358.863281 54.839844 361.34375 C 52.789062 363.140625 52.203125 363.574219 50.894531 364.214844 C 49.261719 365.007812 48.191406 365.285156 44.941406 365.691406 C 42.421875 366.011719 41.738281 366.039062 39.089844 365.984375 C 35.035156 365.886719 33.417969 365.578125 30.9375 364.410156 C 27.941406 363 25.570312 360.660156 24.761719 358.289062 C 24.539062 357.636719 24.523438 355.125 24.484375 319.894531 C 24.457031 285.816406 24.46875 282.097656 24.664062 281.148438 C 25.109375 279.085938 26.226562 276.589844 27.6875 274.445312 C 28.21875 273.664062 28.636719 273.234375 29.292969 272.800781 C 31.1875 271.53125 32.261719 271.210938 36.023438 270.820312 C 38.617188 270.558594 38.824219 270.558594 40.550781 270.765625 C 44.371094 271.238281 46.390625 271.8125 49.054688 273.175781 C 50.351562 273.847656 50.769531 274.152344 51.773438 275.15625 C 52.734375 276.117188 53.136719 276.675781 53.933594 278.082031 C 54.460938 279.03125 55.117188 280.339844 55.367188 280.96875 C 56.035156 282.625 57 286.039062 57.261719 287.644531 C 57.613281 289.777344 58.324219 292.871094 58.585938 293.484375 C 58.949219 294.292969 59.996094 295.378906 60.859375 295.851562 C 61.472656 296.1875 61.804688 296.269531 62.796875 296.3125 C 65.386719 296.4375 68.203125 295.128906 69.707031 293.09375 C 70.726562 291.699219 71.03125 290.933594 71.285156 289.121094 C 71.449219 287.894531 71.257812 286.304688 70.808594 285.316406 C 70.699219 285.050781 70.40625 284.339844 70.167969 283.726562 C 69.527344 282.070312 68.078125 279.824219 66.128906 277.429688 C 64.246094 275.128906 59.96875 271.9375 56.289062 270.097656 C 50.238281 267.058594 43.507812 265.875 34.628906 266.25 Z M 34.628906 266.25 "
		fill-opacity="1" fill-rule="nonzero" />
	<path fill="#000000"
		d="M 548.710938 266.515625 C 543.761719 266.835938 539.34375 267.882812 536.195312 269.457031 C 534.800781 270.152344 531.734375 272.035156 530.550781 272.914062 C 527.875 274.890625 526.523438 276.339844 524.445312 279.476562 C 522.089844 283.015625 521.464844 284.523438 520.238281 289.457031 L 519.847656 290.976562 L 519.804688 319.40625 C 519.761719 345.523438 519.777344 347.992188 520 349.648438 C 520.125 350.640625 520.347656 351.933594 520.488281 352.535156 C 520.640625 353.121094 520.753906 353.816406 520.753906 354.082031 C 520.753906 354.695312 521.074219 355.726562 521.40625 356.226562 C 521.5625 356.4375 521.796875 356.925781 521.9375 357.316406 C 522.773438 359.601562 525.199219 363.097656 527.527344 365.34375 C 528.808594 366.570312 531.300781 368.449219 533.058594 369.507812 C 535.441406 370.929688 539.886719 372.617188 542.980469 373.257812 C 548.78125 374.457031 555.359375 374.527344 560.570312 373.46875 C 567.929688 371.976562 574.117188 368.285156 578.519531 362.777344 C 581.058594 359.613281 582.96875 355.867188 583.523438 352.996094 C 583.636719 352.382812 584.011719 351.027344 584.359375 349.996094 C 584.890625 348.464844 585 347.933594 585 347.113281 C 585 346.542969 585.15625 345.496094 585.351562 344.632812 C 585.546875 343.808594 585.683594 343.097656 585.65625 343.070312 C 585.613281 343.042969 584.164062 343 582.410156 342.988281 C 579.023438 342.960938 578.589844 343.03125 578.589844 343.601562 C 578.589844 344.117188 577.195312 349.496094 576.863281 350.277344 C 576.679688 350.695312 576.488281 351.292969 576.429688 351.613281 C 576.320312 352.324219 575.066406 354.945312 574.1875 356.296875 C 572.625 358.722656 570.589844 360.910156 568.234375 362.695312 C 564.375 365.605469 559.679688 367 553.683594 367 C 551.582031 367 550.453125 366.832031 548.683594 366.234375 C 544.863281 364.953125 541.589844 362.027344 540.265625 358.75 C 539.332031 356.394531 539.386719 357.480469 539.332031 339.320312 L 539.273438 322.847656 L 549.976562 322.777344 C 562.382812 322.695312 566.199219 322.5 570.367188 321.761719 C 575.46875 320.839844 578.226562 319.449219 581.601562 316.074219 C 584.429688 313.230469 585.796875 310.777344 586.519531 307.167969 C 587.355469 303.058594 587.511719 298.890625 586.96875 294.597656 C 586.296875 289.316406 585.28125 285.761719 583.203125 281.496094 C 582.003906 279.042969 580.875 277.441406 579.007812 275.574219 C 577.15625 273.707031 575.414062 272.398438 573.644531 271.53125 C 567.441406 268.523438 565.617188 267.839844 561.796875 267.140625 C 558.578125 266.542969 552.554688 266.265625 548.710938 266.515625 Z M 554.632812 270.765625 C 557.671875 271.296875 560.277344 272.6875 562.980469 275.238281 C 565.15625 277.289062 566.773438 279.558594 568.402344 282.820312 C 570.117188 286.277344 571.078125 289.316406 571.621094 292.96875 C 572.777344 300.898438 572.125 306.304688 569.324219 312.160156 C 567.777344 315.40625 566.4375 316.4375 562.925781 317.105469 C 559.582031 317.746094 558.019531 317.859375 552.390625 317.84375 C 546.703125 317.832031 545.28125 317.71875 543.039062 317.09375 C 541.839844 316.757812 540.054688 315.949219 539.609375 315.53125 L 539.289062 315.253906 L 539.289062 281.679688 L 539.777344 279.785156 C 540.613281 276.523438 542.074219 274.097656 543.847656 273.023438 C 545.839844 271.824219 547.664062 271.074219 549.296875 270.78125 C 550.730469 270.515625 553.199219 270.515625 554.632812 270.765625 Z M 554.632812 270.765625 "
		fill-opacity="1" fill-rule="nonzero" />
	<path fill="#000000"
		d="M 121.359375 266.667969 C 119.199219 266.820312 115.507812 267.421875 114.570312 267.785156 C 113.277344 268.257812 112.800781 268.730469 111.242188 271.042969 C 110.515625 272.132812 108.3125 274.597656 108.089844 274.597656 C 108.035156 274.597656 108.023438 273.914062 108.050781 273.09375 L 108.105469 271.589844 L 107.589844 270.640625 C 106.824219 269.261719 106.070312 268.871094 104.675781 269.164062 C 103.867188 269.332031 101.929688 270.5 97.136719 273.71875 C 95.757812 274.640625 93.972656 275.796875 93.164062 276.269531 C 92.355469 276.757812 90.976562 277.636719 90.097656 278.234375 C 89.21875 278.835938 87.996094 279.558594 87.382812 279.839844 C 86.460938 280.269531 83.199219 282.265625 81.902344 283.171875 C 81.597656 283.394531 81.597656 283.460938 81.625 285.234375 L 81.667969 287.074219 L 84.246094 287.140625 C 86.726562 287.210938 86.835938 287.226562 87.285156 287.558594 C 87.546875 287.753906 87.925781 288.1875 88.121094 288.535156 L 88.496094 289.164062 L 88.539062 329.257812 L 88.566406 369.371094 L 83.6875 369.371094 L 83.6875 373.96875 L 114.210938 373.96875 L 114.210938 369.371094 L 108.636719 369.371094 L 108.636719 323.335938 C 108.636719 293.59375 108.691406 277.136719 108.773438 276.828125 C 109.234375 275.183594 111.171875 273.886719 113.570312 273.625 C 117.21875 273.234375 122.347656 274.683594 126.152344 277.191406 C 128.3125 278.625 129.597656 280.203125 131.003906 283.128906 C 132.691406 286.640625 132.96875 289.734375 131.910156 293.039062 C 131.269531 295.042969 130.375 296.214844 128.730469 297.175781 C 128.300781 297.425781 127.6875 297.804688 127.394531 298 C 126.640625 298.488281 125.777344 299.617188 125.777344 300.089844 C 125.777344 300.882812 127.253906 301.761719 128.773438 301.875 C 130.363281 302.011719 132.371094 301.34375 136.246094 299.40625 C 140.914062 297.066406 143.910156 294.222656 145.847656 290.277344 C 147.769531 286.347656 148.046875 282.863281 146.710938 279.296875 C 145.566406 276.242188 142.976562 272.855469 140.257812 270.835938 C 138.878906 269.804688 136.117188 268.4375 134.488281 267.980469 C 130.65625 266.878906 125.5 266.363281 121.359375 266.667969 Z M 121.359375 266.667969 "
		fill-opacity="1" fill-rule="nonzero" />
	<path fill="#000000"
		d="M 286.539062 266.933594 C 284.699219 267.042969 283.640625 267.238281 282.277344 267.699219 C 280.671875 268.242188 278.570312 269.527344 276.546875 271.199219 L 275.476562 272.089844 L 275.390625 271.558594 C 275.140625 270.011719 274.5 268.480469 273.832031 267.882812 C 273.160156 267.28125 272.046875 267.074219 271.125 267.367188 C 270.863281 267.449219 268.996094 268.632812 266.960938 270 C 263.363281 272.398438 262.082031 273.191406 257.132812 276.105469 C 254.359375 277.75 252.324219 278.988281 250.066406 280.425781 L 248.421875 281.46875 L 248.421875 285.191406 L 253.316406 285.191406 L 253.941406 285.621094 C 254.304688 285.859375 254.738281 286.347656 254.972656 286.765625 L 255.390625 287.492188 L 255.390625 369.089844 L 249.816406 369.089844 L 249.816406 373.691406 L 280.757812 373.691406 L 280.757812 369.089844 L 275.460938 369.089844 L 275.460938 325.007812 C 275.460938 295.070312 275.503906 280.882812 275.601562 280.785156 C 275.683594 280.703125 275.90625 280.0625 276.089844 279.363281 C 276.660156 277.246094 277.800781 275.269531 279.125 274.097656 C 279.921875 273.398438 282.429688 272.074219 283.863281 271.617188 C 284.882812 271.28125 285.441406 271.210938 289.273438 270.878906 C 291.921875 270.65625 296.4375 272.535156 298.472656 274.695312 C 300.003906 276.339844 300.796875 277.734375 301.578125 280.117188 L 302.082031 281.652344 L 302.082031 369.089844 L 297.480469 369.089844 L 297.480469 373.691406 L 327.863281 373.691406 L 327.863281 369.089844 L 322.148438 369.089844 L 322.179688 324.730469 L 322.21875 280.382812 L 322.625 279.199219 C 323.824219 275.601562 325.328125 274 329.117188 272.257812 C 331.222656 271.28125 331.570312 271.210938 335.738281 270.890625 C 337.773438 270.722656 340.378906 271.464844 342.777344 272.871094 C 345.367188 274.402344 346.859375 276.523438 348.558594 281.078125 C 349.0625 282.417969 349.078125 282.5 348.921875 283.253906 C 348.714844 284.269531 348.699219 360.714844 348.910156 362.679688 C 349.398438 367.222656 351.402344 369.832031 356.226562 372.15625 C 358.914062 373.46875 360.921875 373.789062 367.304688 373.914062 C 370.972656 373.996094 371.417969 373.984375 373.007812 373.703125 C 375.304688 373.300781 375.945312 372.953125 375.667969 372.214844 C 375.597656 372.058594 374.511719 371.183594 373.242188 370.289062 C 370.371094 368.242188 369.203125 367.070312 368.589844 365.566406 L 368.140625 364.507812 L 368.140625 327.671875 C 368.140625 305.191406 368.085938 290.347656 368.003906 289.582031 C 367.527344 285.164062 364.867188 279.910156 361.105469 276.019531 C 358.332031 273.148438 356.074219 271.617188 352.074219 269.875 C 346.929688 267.644531 343.140625 266.933594 336.199219 266.90625 C 331.433594 266.890625 329.59375 267.253906 326.75 268.773438 C 324.4375 270 323.167969 271.042969 321.035156 273.484375 C 319.542969 275.183594 318.679688 276.507812 318.148438 277.875 C 317.96875 278.332031 317.691406 278.976562 317.523438 279.296875 L 317.230469 279.894531 L 316.449219 278.738281 C 315.515625 277.359375 312.617188 274.402344 311.070312 273.246094 C 305.996094 269.457031 302.832031 268.160156 296.503906 267.296875 C 294.207031 266.976562 288.882812 266.78125 286.539062 266.933594 Z M 286.539062 266.933594 "
		fill-opacity="1" fill-rule="nonzero" />
	<path fill="#000000"
		d="M 156.535156 268.285156 C 156.480469 268.328125 156.4375 269.398438 156.4375 270.65625 L 156.4375 272.925781 L 161.316406 272.925781 L 161.316406 311.878906 C 161.316406 354.820312 161.246094 351.488281 162.179688 354.25 C 163.296875 357.578125 165.511719 361.21875 168.578125 364.757812 C 171.492188 368.128906 176.816406 371.417969 180.925781 372.367188 C 181.441406 372.492188 182.011719 372.6875 182.179688 372.800781 C 182.363281 372.910156 183.140625 373.089844 183.9375 373.21875 C 184.71875 373.328125 185.679688 373.523438 186.054688 373.648438 C 186.847656 373.914062 187.769531 373.929688 189.957031 373.71875 C 193.957031 373.328125 196.746094 372.3125 201.078125 369.703125 C 203.085938 368.507812 204.492188 367.433594 205.941406 366.011719 C 207.085938 364.882812 207.378906 364.492188 207.824219 363.574219 C 208.101562 362.972656 208.519531 362.191406 208.746094 361.859375 L 209.164062 361.257812 L 209.46875 362.484375 C 210.082031 364.882812 211.085938 366.625 212.953125 368.476562 C 215.460938 370.972656 217.636719 372.128906 221.386719 372.9375 C 223.042969 373.316406 229.804688 373.316406 231.90625 372.953125 C 233.007812 372.757812 235.949219 371.894531 237.273438 371.363281 C 237.386719 371.308594 237.148438 371.222656 236.742188 371.167969 C 235.253906 370.972656 233.371094 369.71875 230.710938 367.183594 C 229.386719 365.898438 229.105469 365.550781 228.632812 364.574219 C 227.796875 362.820312 227.601562 361.929688 227.628906 359.753906 C 227.644531 358.722656 227.683594 338.765625 227.726562 315.390625 L 227.808594 272.925781 L 233.09375 272.925781 L 233.09375 268.1875 L 202.710938 268.1875 L 202.710938 272.925781 L 208.003906 272.925781 L 207.964844 312.953125 L 207.9375 352.996094 L 207.628906 354.039062 C 206.75 357.121094 205.777344 358.863281 203.351562 361.691406 C 201.789062 363.503906 200.101562 364.953125 197.664062 366.582031 C 195.308594 368.15625 194.222656 368.589844 192.0625 368.8125 C 190.136719 369.023438 189.066406 368.980469 187.867188 368.671875 C 185.902344 368.171875 182.75 366.152344 181.914062 364.855469 C 181.023438 363.488281 180.453125 359.558594 180.605469 355.851562 C 180.660156 354.738281 180.730469 335.628906 180.773438 313.371094 L 180.84375 272.925781 L 186.820312 272.925781 L 186.820312 268.1875 L 171.726562 268.1875 C 163.421875 268.1875 156.578125 268.230469 156.535156 268.285156 Z M 156.535156 268.285156 "
		fill-opacity="1" fill-rule="nonzero" />
	<path fill="#000000"
		d="M 338.457031 381.371094 C 333.523438 381.578125 329.132812 382.527344 325.703125 384.101562 C 324.308594 384.757812 320.671875 386.945312 319.25 388.003906 C 318.664062 388.4375 317.480469 389.496094 316.644531 390.34375 C 315.417969 391.558594 314.792969 392.351562 313.566406 394.191406 C 312.714844 395.472656 311.738281 397.105469 311.375 397.816406 C 310.652344 399.277344 309.816406 401.925781 309.1875 404.8125 L 308.769531 406.734375 L 308.8125 436.238281 C 308.855469 455.933594 308.921875 466.273438 309.019531 467.363281 C 309.214844 469.382812 309.496094 470.609375 310.082031 471.933594 C 310.332031 472.519531 310.707031 473.394531 310.917969 473.898438 C 311.320312 474.875 313.621094 478.289062 314.972656 479.90625 C 317.46875 482.914062 321.578125 485.410156 327.140625 487.292969 C 330.917969 488.558594 336.269531 489.1875 342.398438 489.046875 C 346.859375 488.949219 349.300781 488.53125 353.730469 487.070312 C 361.3125 484.574219 367.265625 479.402344 370.175781 472.796875 C 370.652344 471.695312 371.039062 470.371094 371.765625 467.429688 C 372.296875 465.269531 372.796875 463.011719 372.894531 462.398438 C 373.089844 461.171875 373.132812 456.308594 372.964844 455.042969 L 372.867188 454.246094 L 370.886719 454.246094 C 369.703125 454.261719 368.546875 454.332031 368.003906 454.457031 C 367.5 454.566406 366.859375 454.652344 366.566406 454.664062 C 365.816406 454.664062 365.453125 454.886719 365.632812 455.222656 C 365.816406 455.558594 365.816406 459.515625 365.632812 461.144531 C 365.3125 463.890625 363.542969 469.96875 362.484375 471.945312 C 361.675781 473.4375 360.363281 474.984375 358.621094 476.519531 C 356.617188 478.289062 355.890625 478.789062 354.46875 479.457031 C 353.074219 480.113281 351.570312 480.503906 349.675781 480.714844 C 348.910156 480.8125 347.808594 480.9375 347.238281 481.003906 C 345.816406 481.171875 341.816406 481.171875 340.15625 481.003906 C 336.351562 480.585938 333.355469 479.25 330.917969 476.824219 C 329.398438 475.320312 328.699219 474.105469 328.421875 472.503906 C 328.308594 471.863281 328.28125 460.824219 328.308594 434.039062 L 328.351562 396.476562 L 328.742188 395.222656 C 329.230469 393.648438 330.402344 391.25 331.375 389.789062 C 332.226562 388.546875 333.035156 387.851562 334.484375 387.140625 C 335.710938 386.539062 336.757812 386.261719 338.527344 386.09375 C 339.292969 386.023438 340.519531 385.886719 341.242188 385.800781 C 342.691406 385.636719 344.796875 385.828125 347.542969 386.386719 C 350.484375 386.972656 353.621094 388.410156 355.277344 389.925781 C 356.65625 391.195312 358.332031 393.828125 359.304688 396.28125 C 359.933594 397.898438 360.894531 401.4375 361.242188 403.460938 C 362.007812 407.90625 362.484375 409.214844 363.738281 410.304688 C 364.601562 411.070312 365.3125 411.363281 366.523438 411.433594 C 370.050781 411.640625 373.589844 409.328125 374.761719 406.039062 C 374.875 405.703125 375.027344 404.894531 375.109375 404.226562 C 375.277344 402.832031 375.082031 401.496094 374.511719 400.101562 C 374.328125 399.640625 374.066406 398.972656 373.941406 398.609375 C 373.632812 397.773438 372.65625 396.171875 371.277344 394.246094 C 368.378906 390.21875 363.558594 386.609375 357.757812 384.144531 C 352.628906 381.957031 346.207031 381.035156 338.457031 381.371094 Z M 338.457031 381.371094 "
		fill-opacity="1" fill-rule="nonzero" />
	<path fill="#000000"
		d="M 598.800781 381.636719 C 593.851562 381.957031 589.503906 383 586.269531 384.617188 C 582.492188 386.527344 578.757812 389.246094 576.863281 391.472656 C 575.84375 392.660156 573.921875 395.488281 572.890625 397.3125 C 572.039062 398.792969 571.121094 401.523438 570.421875 404.5625 L 569.949219 406.652344 L 569.949219 435.015625 C 569.949219 465.550781 569.921875 464.449219 570.648438 467.765625 C 570.785156 468.421875 570.953125 469.296875 570.996094 469.71875 C 571.050781 470.175781 571.273438 470.832031 571.566406 471.390625 C 571.816406 471.890625 572.234375 472.769531 572.472656 473.339844 C 572.917969 474.398438 574.421875 476.699219 575.746094 478.359375 C 577.40625 480.421875 580.417969 482.972656 583.121094 484.574219 C 585.574219 486.050781 589.574219 487.585938 592.804688 488.292969 C 598.953125 489.660156 606.253906 489.675781 611.941406 488.324219 C 618.632812 486.734375 624.277344 483.234375 628.609375 477.996094 C 631.023438 475.070312 633.058594 471.054688 633.699219 467.976562 C 633.824219 467.363281 634.214844 466.023438 634.546875 465.007812 C 635.0625 463.460938 635.175781 462.957031 635.175781 462.09375 C 635.175781 461.464844 635.3125 460.519531 635.523438 459.65625 C 635.71875 458.875 635.871094 458.234375 635.871094 458.21875 C 635.871094 458.203125 634.757812 458.148438 633.40625 458.105469 C 630.535156 458.007812 629.058594 458.121094 628.902344 458.429688 C 628.847656 458.539062 628.5 459.890625 628.136719 461.425781 C 627.773438 462.957031 627.285156 464.671875 627.078125 465.230469 C 626.855469 465.785156 626.605469 466.539062 626.535156 466.902344 C 626.339844 467.75 625.070312 470.328125 624.191406 471.667969 C 623.203125 473.144531 621.433594 475.234375 620.304688 476.226562 C 616.375 479.710938 612.835938 481.296875 607.636719 481.910156 C 601.796875 482.59375 598.128906 481.773438 594.394531 478.941406 C 591.675781 476.867188 590.074219 474.148438 589.613281 470.789062 C 589.515625 470.050781 589.460938 464.460938 589.460938 453.828125 L 589.460938 437.96875 L 600.164062 437.898438 C 613.210938 437.816406 616.695312 437.621094 621.167969 436.742188 C 625.671875 435.851562 628.25 434.554688 631.398438 431.585938 C 634.421875 428.742188 636.164062 425.480469 636.847656 421.410156 C 637.53125 417.257812 637.613281 413.996094 637.125 409.914062 C 636.5 404.601562 635.410156 400.8125 633.28125 396.476562 C 632.152344 394.179688 630.882812 392.410156 629.113281 390.625 C 626.8125 388.339844 625.15625 387.183594 622.253906 385.898438 C 621.503906 385.566406 619.914062 384.855469 618.730469 384.3125 C 615.84375 383.015625 613 382.304688 608.902344 381.828125 C 606.644531 381.578125 601.308594 381.480469 598.800781 381.636719 Z M 604.804688 385.886719 C 606.980469 386.261719 609.070312 387.140625 610.828125 388.421875 C 614.101562 390.832031 616.527344 393.84375 618.660156 398.148438 C 621.125 403.140625 622.269531 408.378906 622.269531 414.734375 C 622.269531 417.996094 622.128906 419.238281 621.445312 421.925781 C 620.945312 423.90625 620.347656 425.523438 619.398438 427.488281 C 618.703125 428.9375 618.410156 429.371094 617.683594 430.078125 C 616.554688 431.195312 615.453125 431.722656 613.433594 432.144531 C 610.15625 432.839844 608.222656 432.980469 602.632812 432.980469 C 597.128906 432.964844 595.691406 432.851562 593.515625 432.28125 C 592.125 431.917969 590.285156 431.125 589.78125 430.652344 L 589.460938 430.371094 L 589.460938 396.644531 L 589.964844 394.75 C 591.132812 390.21875 592.917969 388.226562 597.265625 386.5 C 599.257812 385.71875 602.410156 385.453125 604.804688 385.886719 Z M 604.804688 385.886719 "
		fill-opacity="1" fill-rule="nonzero" />
	<path fill="#000000"
		d="M 691.203125 381.773438 C 689.125 381.941406 685.90625 382.429688 684.902344 382.75 C 683.257812 383.25 682.644531 383.824219 681.027344 386.234375 C 680.273438 387.363281 679.089844 388.730469 678.394531 389.285156 L 677.851562 389.71875 L 677.933594 388.183594 C 678.003906 386.707031 677.988281 386.636719 677.640625 386.136719 C 677.445312 385.84375 677.210938 385.441406 677.113281 385.230469 C 676.917969 384.796875 675.746094 384.144531 675.1875 384.144531 C 674.171875 384.15625 672.359375 385.1875 667.230469 388.671875 C 665.960938 389.539062 664.277344 390.625 663.46875 391.113281 C 662.660156 391.601562 661.167969 392.546875 660.136719 393.230469 C 659.105469 393.914062 657.738281 394.722656 657.097656 395.027344 C 656.457031 395.335938 655.117188 396.117188 654.128906 396.757812 C 653.140625 397.398438 652.136719 398.023438 651.898438 398.148438 L 651.46875 398.375 L 651.507812 400.28125 L 651.550781 402.191406 L 654.101562 402.234375 L 656.652344 402.261719 L 657.40625 403 C 657.949219 403.53125 658.171875 403.851562 658.171875 404.101562 C 658.171875 404.308594 658.242188 404.519531 658.308594 404.5625 C 658.40625 404.617188 658.449219 418.109375 658.449219 444.574219 L 658.449219 484.488281 L 653.570312 484.488281 L 653.570312 489.089844 L 683.953125 489.089844 L 683.953125 484.488281 L 681.210938 484.460938 L 678.449219 484.421875 L 678.449219 392.296875 L 678.867188 391.460938 C 679.3125 390.582031 680.082031 389.871094 681.320312 389.230469 C 682.242188 388.757812 684.332031 388.546875 686.253906 388.742188 C 687.757812 388.894531 690.308594 389.578125 692.246094 390.34375 C 695.382812 391.585938 697.988281 393.507812 699.355469 395.570312 C 700.273438 396.964844 701.472656 399.472656 701.878906 400.828125 C 702.308594 402.332031 702.476562 404.964844 702.226562 406.332031 C 701.613281 409.566406 700.539062 411.195312 698.058594 412.617188 C 696.972656 413.242188 695.898438 414.277344 695.648438 414.917969 C 695.4375 415.445312 695.828125 415.960938 696.789062 416.476562 C 698.671875 417.46875 700.441406 417.175781 704.722656 415.167969 C 710.421875 412.492188 713.5 409.773438 715.648438 405.523438 C 716.929688 402.988281 717.515625 400.4375 717.347656 398.164062 C 717.167969 395.570312 716.414062 393.507812 714.742188 390.988281 C 712.761719 387.976562 710.378906 385.828125 707.4375 384.351562 C 705.488281 383.390625 704.289062 383 701.710938 382.484375 C 698.226562 381.789062 694.367188 381.539062 691.203125 381.773438 Z M 691.203125 381.773438 "
		fill-opacity="1" fill-rule="nonzero" />
	<path fill="#000000"
		d="M 419.152344 383.363281 C 413.269531 384.003906 409.046875 385.160156 405.855469 387.015625 C 404.058594 388.058594 400.824219 390.207031 399.082031 391.503906 C 396.808594 393.203125 393.800781 396.242188 392.617188 398.039062 C 390.121094 401.800781 388.753906 406.957031 389.535156 409.59375 C 390.050781 411.347656 392.683594 414.121094 394.832031 415.167969 C 396.378906 415.90625 397.214844 416.101562 399.011719 416.113281 C 400.183594 416.113281 400.585938 416.058594 401.519531 415.738281 C 403.261719 415.125 404.601562 414.316406 405.773438 413.117188 C 406.96875 411.90625 407.582031 410.820312 408.015625 409.117188 C 408.253906 408.183594 408.265625 407.878906 408.15625 407.125 C 407.917969 405.675781 407.304688 403.988281 406.609375 402.820312 C 406.230469 402.21875 405.898438 401.578125 405.839844 401.398438 C 405.785156 401.230469 405.550781 400.714844 405.339844 400.28125 C 404.808594 399.222656 404.808594 398.375 405.339844 396.785156 C 405.910156 395.125 406.34375 394.359375 407.445312 393.160156 C 410.273438 390.09375 415.066406 388.367188 421.449219 388.101562 C 423.972656 388.003906 425.480469 388.253906 427.542969 389.132812 C 428.253906 389.441406 429.160156 389.800781 429.546875 389.925781 C 430.328125 390.164062 431.386719 390.765625 432.753906 391.738281 C 433.714844 392.421875 435.152344 394.179688 435.609375 395.210938 C 436.085938 396.296875 436.15625 397.550781 436.15625 406.316406 L 436.15625 414.917969 L 435.277344 415.726562 C 432.585938 418.246094 430.425781 419.695312 427.640625 420.855469 C 425.660156 421.660156 423.582031 422.695312 414.484375 427.304688 C 404.601562 432.324219 401.925781 433.789062 399.710938 435.375 C 398.050781 436.5625 397.410156 437.175781 395.234375 439.570312 C 392.167969 442.972656 390.496094 446.371094 389.6875 450.832031 C 389.132812 453.941406 388.90625 455.945312 388.894531 457.996094 C 388.851562 466.203125 390.34375 472.308594 393.6875 477.660156 C 394.789062 479.417969 397.519531 482.386719 399.5 483.972656 C 401.421875 485.507812 404.238281 487.222656 406.398438 488.15625 C 409.128906 489.339844 410.679688 489.703125 414.066406 489.9375 C 420.085938 490.359375 424.433594 489.117188 430.023438 485.394531 C 433.339844 483.195312 434.96875 481.519531 436.433594 478.875 C 436.90625 478.007812 437.339844 477.257812 437.394531 477.199219 C 437.464844 477.132812 437.644531 477.660156 437.800781 478.34375 C 438.328125 480.585938 439.386719 482.523438 441.074219 484.324219 C 443.542969 486.914062 446.691406 488.574219 450.273438 489.160156 C 451.152344 489.296875 452.613281 489.367188 454.941406 489.367188 C 458.023438 489.367188 458.371094 489.339844 458.859375 489.101562 C 459.917969 488.558594 460.390625 487.765625 460.613281 486.148438 C 460.796875 484.9375 459.917969 483.667969 458.648438 483.292969 C 457.742188 483.027344 456.542969 481.996094 456.015625 481.019531 L 455.652344 480.378906 L 455.609375 446.300781 C 455.582031 421.203125 455.527344 412.003906 455.414062 411.390625 C 455.316406 410.929688 455.21875 409.953125 455.179688 409.230469 C 455.011719 406.234375 454.160156 401.957031 453.339844 399.90625 C 452.113281 396.867188 450.675781 394.636719 448.265625 392.058594 C 444.613281 388.171875 438.578125 385.023438 432.671875 383.949219 C 429.101562 383.292969 422.480469 383.015625 419.152344 383.363281 Z M 436.015625 469.089844 C 435.765625 471.234375 434.996094 473.367188 433.882812 475 C 433.101562 476.140625 430.761719 478.707031 429.5625 479.722656 C 426.441406 482.414062 424.390625 483.570312 421.242188 484.421875 C 418.871094 485.046875 416.867188 484.839844 414.789062 483.765625 C 412.015625 482.316406 410.582031 480.65625 410.105469 478.359375 C 409.535156 475.527344 409.492188 474.621094 409.4375 464.421875 C 409.355469 452.113281 409.480469 450.273438 410.648438 445.605469 C 411.917969 440.53125 413.589844 436.894531 415.765625 434.441406 C 417.394531 432.601562 418.425781 431.851562 423.609375 428.714844 C 424.574219 428.144531 425.980469 427.265625 426.734375 426.789062 C 427.5 426.304688 429.074219 425.410156 430.21875 424.796875 C 432.671875 423.5 434.328125 422.441406 435.347656 421.496094 L 436.085938 420.824219 L 436.125 444.269531 C 436.15625 460.894531 436.125 468.101562 436.015625 469.089844 Z M 436.015625 469.089844 "
		fill-opacity="1" fill-rule="nonzero" />
	<path fill="#000000"
		d="M 724.652344 385.46875 L 724.652344 387.765625 L 732.316406 387.765625 L 732.316406 427.597656 C 732.316406 463.445312 732.34375 467.515625 732.539062 468.253906 C 732.652344 468.714844 732.875 469.5625 733.027344 470.136719 C 733.402344 471.613281 735.269531 475.515625 736.425781 477.242188 C 738.28125 480.042969 741.90625 483.25 745 484.824219 C 748.914062 486.832031 751.9375 487.890625 755.1875 488.378906 C 758.308594 488.851562 759.074219 489.242188 762.628906 492.140625 C 765.222656 494.246094 770.363281 499.429688 772.398438 501.980469 C 779.324219 510.664062 783.882812 520.796875 786.027344 532.222656 C 787.800781 541.671875 787.589844 552.085938 785.402344 562.675781 C 783.03125 574.132812 779.449219 583.121094 774.351562 590.382812 C 767.996094 599.429688 760.484375 605.269531 751.8125 607.886719 C 745.75 609.714844 739.035156 609.699219 731.5625 607.820312 C 720.039062 604.917969 708.289062 596.738281 700.847656 586.410156 C 693.195312 575.792969 690.074219 561.183594 692.46875 547.25 C 693.65625 540.265625 696.457031 533.046875 700.023438 527.679688 C 702.367188 524.140625 704.539062 521.6875 707.367188 519.386719 C 712.316406 515.359375 717.917969 513.480469 724.902344 513.480469 C 729 513.480469 732.972656 514.289062 737.652344 516.070312 C 746.140625 519.320312 753.277344 525.519531 757.667969 533.480469 C 760.914062 539.386719 762.644531 545.214844 762.921875 551.179688 C 762.976562 552.25 763.074219 553.242188 763.128906 553.367188 C 763.421875 553.925781 765.445312 554.050781 767.953125 553.671875 C 770.113281 553.351562 771.605469 552.878906 773.777344 551.804688 C 776.496094 550.46875 777.542969 549.476562 777.820312 548.027344 C 777.917969 547.472656 777.679688 543.21875 777.457031 541.714844 C 776.453125 534.84375 773.652344 528.390625 769.304688 522.941406 C 767.019531 520.070312 762.851562 516.320312 759.382812 513.996094 C 753.640625 510.160156 746.140625 507.554688 738.449219 506.707031 C 735.367188 506.371094 729.695312 506.371094 727.089844 506.707031 C 716.609375 508.042969 706.851562 511.820312 698.910156 517.605469 C 689.890625 524.183594 683.660156 532.558594 679.691406 543.472656 C 677.597656 549.214844 676.664062 554.648438 676.679688 561.074219 C 676.722656 576.179688 681.628906 588.320312 691.953125 598.886719 C 696.332031 603.371094 700.664062 606.496094 706.503906 609.421875 C 713.945312 613.144531 720.914062 615.148438 728.511719 615.789062 C 731.464844 616.027344 737.933594 615.886719 740.707031 615.511719 C 749.542969 614.3125 756.734375 612.207031 763.1875 608.949219 C 772.398438 604.292969 780.746094 597.210938 787.144531 588.667969 C 793.792969 579.804688 798.097656 569.839844 800.539062 557.757812 C 803.253906 544.253906 802.726562 531.039062 798.992188 519.136719 L 798.515625 517.617188 L 798.515625 455.558594 C 798.515625 411.753906 798.558594 393.175781 798.671875 392.410156 C 798.851562 391.097656 799.242188 389.925781 799.632812 389.507812 C 800.441406 388.644531 802.699219 388.046875 805.082031 388.046875 L 806.183594 388.046875 L 806.183594 383.167969 L 771.0625 383.167969 L 771.0625 388.410156 L 772.707031 388.574219 C 774.40625 388.742188 776.386719 389.230469 777.347656 389.71875 C 778 390.066406 778.644531 390.902344 778.976562 391.863281 C 779.199219 392.535156 779.214844 394.875 779.257812 430.207031 C 779.296875 469.171875 779.296875 469.8125 778.726562 471.808594 C 778.40625 472.964844 777.707031 474.832031 777.320312 475.597656 C 776.050781 478.078125 773.082031 481.339844 770.867188 482.664062 C 768.84375 483.875 766.042969 484.546875 763.046875 484.546875 C 760.902344 484.546875 759.742188 484.28125 757.472656 483.292969 C 755.8125 482.566406 754.964844 481.882812 754.167969 480.671875 C 753.445312 479.542969 753.109375 478.371094 752.84375 476.058594 C 752.636719 474.316406 752.609375 469.589844 752.566406 430.929688 L 752.523438 387.765625 L 759.773438 387.765625 L 759.773438 383.167969 L 724.652344 383.167969 Z M 724.652344 385.46875 "
		fill-opacity="1" fill-rule="nonzero" />
</svg>